<svg width="19" height="17" viewBox="0 0 19 17" fill="none" xmlns="http://www.w3.org/2000/svg">
<path d="M5.99204 3.77661C5.88873 2.44975 6.88061 1.29037 8.20747 1.18706C9.53433 1.08376 10.6937 2.07564 10.797 3.4025C10.9003 4.72936 9.90844 5.88874 8.58158 5.99204V5.99204C6.22147 5.77086 3.84186 6.08505 1.62004 6.91123L1.40812 6.99003" stroke="white" stroke-width="1.5" stroke-linecap="round"/>
<path d="M7.43519 13.3873C7.7725 14.6747 9.08961 15.445 10.377 15.1076C11.6644 14.7703 12.4347 13.4532 12.0973 12.1658C11.76 10.8784 10.4429 10.1082 9.15551 10.4455V10.4455C6.89124 10.4567 4.6472 10.8725 2.52921 11.6732L2.05123 11.8539" stroke="white" stroke-width="1.5" stroke-linecap="round"/>
<path d="M13.1807 5.51285C13.1807 4.18198 14.2596 3.10309 15.5905 3.10309C16.9214 3.10309 18.0003 4.18198 18.0003 5.51285C18.0003 6.84372 16.9214 7.92261 15.5905 7.92261L9.03084 8.19939C6.49026 8.30659 3.97125 8.71371 1.52625 9.41228V9.41228" stroke="white" stroke-width="1.5" stroke-linecap="round"/>
</svg>
